<svg xmlns="http://www.w3.org/2000/svg" viewBox="0 0 514.895 114.645" fill="currentColor">
  <path
    d="M9.15,4.95q-2.7-1.5-2.925-3.3T8.25-4.65Q10.5-9.15,15.3-18.6a74.7,74.7,0,0,0,4.875-10.575A28.343,28.343,0,0,0,21.6-34.65q.15-1.65.15-2.1a2.6,2.6,0,0,1,.3-2.175A4.707,4.707,0,0,1,24-40.35a34.886,34.886,0,0,1,3.45-2.7,14.259,14.259,0,0,0,4.2-4.65q1.35-3.15,3.075-6.45T39.3-62.475Q42.15-67.5,46.95-75.6q3-5.25,7.125-11.85t8.175-12a15.164,15.164,0,0,1,3.45-3.3,5.941,5.941,0,0,1,3.15-1.2,14.137,14.137,0,0,1,6.6,1.725A23.814,23.814,0,0,1,81.3-97.95a14.993,14.993,0,0,1,3.45,4.8q.75,1.2.6,5.1t-.6,9.45q-.45,5.55-1.05,11.85-.45,6.15-1.35,14.55T80.625-34.65Q79.8-25.5,79.35-17.025a120.734,120.734,0,0,0,0,14.775,10.867,10.867,0,0,1,0,2.55,16.4,16.4,0,0,0-.15,1.95q-.9.9-3.975.825a20.48,20.48,0,0,1-5.85-.975Q66.6,1.2,66.3-.15a3.217,3.217,0,0,1-.6-.75,12.059,12.059,0,0,1,0-2.925q.15-2.625.45-9.675l.75-22.95-1.95.15q-1.35,0-4.95.3t-7.725.825q-4.125.525-7.575,1.05a27.536,27.536,0,0,0-4.65.975q-1.35,0-3.225,1.8A20.951,20.951,0,0,0,33.3-26.7a15.7,15.7,0,0,1-2.175,4.425A8.009,8.009,0,0,0,29.55-19.2a6.557,6.557,0,0,0-1.725,1.8l-.675,1.05a18.446,18.446,0,0,1-1.35,4.425q-1.35,3.525-3.3,7.8A53.28,53.28,0,0,1,18.45,3.3L14.4,9ZM45-46.65l1.65-.3q1.65-.3,3.975-.675A26.241,26.241,0,0,1,54.75-48q3.45-.9,5.775-1.35a28.409,28.409,0,0,1,3.825-.525,4.851,4.851,0,0,1,2.4.375,2.461,2.461,0,0,0,1.125.9l.525.15A23.718,23.718,0,0,0,69-51.6q.45-2.85,1.05-7.05t1.2-8.775q.6-4.575,1.05-8.55t.6-6.225a28.808,28.808,0,0,0-.15-5.175l-.3-2.325q-.9,0-3.375,3.225a96.608,96.608,0,0,0-5.7,8.55Q60.15-72.6,57-66.45a27.3,27.3,0,0,1-2.85,4.5Q52.8-60.3,52.2-60.3a21.591,21.591,0,0,0-1.575,2.325q-1.275,2.025-2.7,4.5t-2.4,4.575Q44.55-46.8,45-46.65ZM125.55-.3a10.587,10.587,0,0,1-2.4-4.125q-.9-2.625-1.8-6.075a9.235,9.235,0,0,1-.225-2.7,11.684,11.684,0,0,0-.075-2.4,24.908,24.908,0,0,1-1.425,2.7,9.289,9.289,0,0,1-1.875,2.4q-.6.6-2.7,2.325a22.538,22.538,0,0,1-4.2,2.775q-4.95,3.15-8.775,2.925A9.074,9.074,0,0,1,95.4-6.3a14.8,14.8,0,0,1-3.9-4.95,10.741,10.741,0,0,1-.6-7.2,58.522,58.522,0,0,1,1.5-10.275A82.052,82.052,0,0,1,97.35-42.15q3.15-6.15,4.8-9.6a37.422,37.422,0,0,1,2.1-4.05,9.977,9.977,0,0,1,5.55.075q3.3.825,3.6,2.925.9,1.5,0,5.625a39.366,39.366,0,0,1-3.6,9.375q-2.1,5.1-3.975,9.9a33.578,33.578,0,0,0-2.25,8.1q-.375,3.3,1.725,4.05,1.35.75,3.975-.15t6.225-5.4q3.6-4.5,7.65-14.25a44.648,44.648,0,0,0,1.8-5.325,26.274,26.274,0,0,0,.75-5.175,5.212,5.212,0,0,1,.975-3.75,9.248,9.248,0,0,1,3.075-3,6.787,6.787,0,0,1,1.65-1.425q1.05-.675,1.35.075l2.4-.15q.6-.15,1.35,1.2a6.58,6.58,0,0,0,1.5,1.95q1.65,1.35,1.5,5.85t-3.6,12.6a82.782,82.782,0,0,0-3.825,9.3,25,25,0,0,0-1.125,6.15,19.914,19.914,0,0,0,.45,4.575,7.757,7.757,0,0,0,2.7,3.825,4.357,4.357,0,0,1,1.875,3.525,25.061,25.061,0,0,1,.075,4.275Q135.75.3,133.725.825a11.4,11.4,0,0,1-4.35.225A8.467,8.467,0,0,1,125.55-.3ZM148.5-4.05a27.378,27.378,0,0,1-2.925-2.7,5.258,5.258,0,0,1-1.125-4.65,62.444,62.444,0,0,1,1.2-7.425q.75-3.225,1.8-7.425a61.7,61.7,0,0,1,1.575-6.15q1.275-4.35,3.075-9.45t3.75-9.675a44.259,44.259,0,0,1,3.45-6.825,7.025,7.025,0,0,1,4.875-1.5q3.225,0,4.425,1.2,1.65,1.35,1.05,4.725T165.45-43.5a38.132,38.132,0,0,1-1.875,3.825,22.993,22.993,0,0,0-1.575,3.3q-.45,1.275.3,1.125a15.9,15.9,0,0,1,3.3-3.825q2.4-2.175,5.1-4.275t5.1-3.75a34.769,34.769,0,0,1,3.3-2.1,12.941,12.941,0,0,1,2.775-1.275,19.09,19.09,0,0,0,2.175-.825,14.247,14.247,0,0,1,7.575-1.275q4.125.375,5.025,2.625a2.487,2.487,0,0,0,.975,1.8l.825.6q.6,0,.675.45l.075.45q0,1.05-2.025,3a6.924,6.924,0,0,1-4.425,2.1,11.682,11.682,0,0,0-3.45.75q-1.5.6-3.6,1.5Q180-36,175.425-33.45a38.509,38.509,0,0,0-9.375,7.8,23.894,23.894,0,0,1-2.25,2.25,13.088,13.088,0,0,0-2.4,3,8.473,8.473,0,0,0-1.5,3.3q-.75,2.55-1.275,4.875A21.052,21.052,0,0,0,158.1-9.45l-.45,1.425a8.89,8.89,0,0,1-1.5,2.775,8.132,8.132,0,0,1-3.525,3Q150.9-1.65,148.5-4.05Zm65.25,13.2a17.164,17.164,0,0,1-9.675-6.225A38.523,38.523,0,0,1,198.15-8.4q-.15-1.95-.075-5.4t.375-6.45a12.3,12.3,0,0,1,.6-3.45q.45-.3.45-1.8a4.655,4.655,0,0,1,.225-2.025q.375-1.425.825-2.925a8.073,8.073,0,0,0,.75-2.925,7.551,7.551,0,0,0-.15-1.725l.45-.975a5.405,5.405,0,0,1,1.05-1.575,2.3,2.3,0,0,0,.825-1.8l-.075-.9a2.751,2.751,0,0,1,.3-1.65,8.134,8.134,0,0,1,.9-1.65,6.177,6.177,0,0,0,.825-1.275l.525-.975a11.435,11.435,0,0,1,.675-2.4q.675-1.95,1.575-4.275t1.725-4.275A14.3,14.3,0,0,1,211.2-59.4v-.3a19.213,19.213,0,0,1,1.65-3.15,21.677,21.677,0,0,1,.75-2.475q.6-1.725,1.35-3.375,1.65-3.6,4.125-8.175t5.325-9.15q2.85-4.575,5.475-8.25a36.644,36.644,0,0,1,4.575-5.475,17.208,17.208,0,0,1,5.175-4.125,3.939,3.939,0,0,1,4.875.975,8.464,8.464,0,0,1,1.8,3.075,9.63,9.63,0,0,1,.675,3.75Q246.9-94.35,245.7-94.2a11.175,11.175,0,0,0-2.85,3.375q-1.8,2.775-4.05,6.525t-4.275,7.725Q232.5-72.6,230.7-69.45q-1.95,4.35-3.6,7.575l-1.65,3.225a5.817,5.817,0,0,1-.3.75l-.3.6q-2.25,4.65-3.75,8.475t-3,8.025a4.173,4.173,0,0,0-1.05,2.1l-.15,1.05q-.3-.15-.45.675a8.9,8.9,0,0,1-.6,1.875,2.684,2.684,0,0,0-.9,1.875,21.18,21.18,0,0,0-.15,2.475,49.551,49.551,0,0,0-1.95,6.525,59.728,59.728,0,0,0-1.275,7.35,32.015,32.015,0,0,0-.225,5.475,9.828,9.828,0,0,0,1.425,4.275A8.021,8.021,0,0,0,216-4.35q1.65.75,3,1.275a6.736,6.736,0,0,0,2.4.525,13.081,13.081,0,0,0,3.075-.075q1.875-.225,5.175-.825h-.15q1.95-.3,4.125-.825t4.125-.975q1.8-.3,3.45-.675t2.55-.675q3.3-.9,5.325-1.5t2.775,0a7.633,7.633,0,0,1,1.65,2.25,3.7,3.7,0,0,1,.45,3,13.437,13.437,0,0,1-3,3.075,65.669,65.669,0,0,1-6.15,4.65A25.12,25.12,0,0,1,238.5,8.1a26.711,26.711,0,0,1-8.025,1.875,57.462,57.462,0,0,1-9.675.225A32.064,32.064,0,0,1,213.75,9.15ZM278.7,2.7q-8.25,0-12.675-4.8T261.6-16.8a39.82,39.82,0,0,1,2.025-11.85,69.3,69.3,0,0,1,5.4-12.6,58.726,58.726,0,0,1,7.425-10.725,24.47,24.47,0,0,1,8.1-6.375,13.674,13.674,0,0,1,3.225-1.125,15.862,15.862,0,0,1,3.375-.375,38.89,38.89,0,0,1,3.975.225,16.034,16.034,0,0,1,4.125.975,13.065,13.065,0,0,1,6.075,4.05q2.625,3,2.625,8.7a18.885,18.885,0,0,1-.3,3.225A13.878,13.878,0,0,1,306.6-39.3a32.037,32.037,0,0,1-5.925,9.45,23.112,23.112,0,0,1-8.325,6.3,9.3,9.3,0,0,1-2.325.825,11.828,11.828,0,0,1-2.325.225,16.392,16.392,0,0,1-5.625-.9,19,19,0,0,1-4.575-2.4l-1.2-1.05-.75,1.5a31.76,31.76,0,0,0-1.425,4.8,16.994,16.994,0,0,0-.375,2.85q0,1.8.15,3.675a6.765,6.765,0,0,0,.9,3.075,4.262,4.262,0,0,0,1.575,1.2,5.92,5.92,0,0,0,2.475.45q.9,0,1.725-.075A9.494,9.494,0,0,0,282-9.6a10.357,10.357,0,0,0,4.425-2.025A22.529,22.529,0,0,1,290.1-14.1l.6-.3-.15-.45q2.55-1.35,3.45-1.725a8.329,8.329,0,0,0,1.35-.675,1.865,1.865,0,0,1,1.35-.6,5.629,5.629,0,0,1,4.125,1.125A4.2,4.2,0,0,1,302.85-13.2a6.361,6.361,0,0,1-1.275,2.85,24.071,24.071,0,0,1-3.15,3.825A16.594,16.594,0,0,1,294.6-3.6a6.873,6.873,0,0,0-.9.375,8.387,8.387,0,0,0-.9.525h.15a3.628,3.628,0,0,1-2.7,1.8h-1.2q-.6,1.05-3.9,2.325A17.829,17.829,0,0,1,278.7,2.7Zm7.8-36.15a6.606,6.606,0,0,0,2.475-.45,17.412,17.412,0,0,0,2.175-1.05,11.42,11.42,0,0,0,4.65-6.6q1.05-4.05-.75-6.15a1.935,1.935,0,0,0-.75-.675,2.32,2.32,0,0,0-1.05-.225,8.114,8.114,0,0,0-3.675,1.05,16.3,16.3,0,0,0-3.975,3A24.888,24.888,0,0,0,282-39.9l-1.95,3.15a4.115,4.115,0,0,1,.525-.225,1.234,1.234,0,0,1,.375-.075,1.814,1.814,0,0,1,1.8.9,11.82,11.82,0,0,0,1.125,1.8A3.128,3.128,0,0,0,286.5-33.45Zm31.35,27.9a7.255,7.255,0,0,0-1.95-1.5q-1.5-.9-1.5-1.5a4.712,4.712,0,0,0-.075-.75q-.075-.45-.675-.45-.45-.45.525-3.3t2.7-6.75q1.725-3.9,3.675-7.575t3.3-5.925a2.078,2.078,0,0,0,.975-1.275q.225-.825-.075-.825l.825-1.425A10.284,10.284,0,0,1,326.85-38.7a18.549,18.549,0,0,0,1.8-4.275,8.1,8.1,0,0,0,.3-3.675,1.1,1.1,0,0,0-1.35-.45l-.75.3q-.6.15-1.725.525a8.442,8.442,0,0,0-2.025.975q-3.45,2.4-5.025,2.4T315-46.5a7.1,7.1,0,0,1-.45-3.15,3.486,3.486,0,0,1,1.2-2.4,23.47,23.47,0,0,1,3-2.175q1.8-1.125,2.4-1.575a29.061,29.061,0,0,1,4.65-2.25q3-1.2,3.6-1.35a9.637,9.637,0,0,1,6.6-.075,7.59,7.59,0,0,1,4.05,4.275,8.37,8.37,0,0,1,2.1,5.4,16.562,16.562,0,0,1-2.1,7.05l-1.5,2.25q-.75,1.5-.225,1.5t1.275-1.05a14.639,14.639,0,0,1,1.8-1.8q1.35-1.2,1.8-1.2l.375-.15q.375-.15.375-1.2.45-.45.975-.9l.525-.45a3.07,3.07,0,0,0,1.575-.675Q348-47.1,350.4-49.05a5.269,5.269,0,0,1,3-1.2q3.45-1.05,5.625,2.25a15.273,15.273,0,0,1,2.175,8.55l-3.15,8.1,5.4-6.6a15.513,15.513,0,0,1,1.875-2.1q.975-.9,1.725-1.5.3-1.05.9-1.2l.6-.15.3-.075q.3-.075.3-.525a13.627,13.627,0,0,1,1.65-1.125A2.929,2.929,0,0,0,372-45.75a10.793,10.793,0,0,1,6.15-.375,6.675,6.675,0,0,1,5.1,3.825q1.05,1.8,1.95,3.15a7.364,7.364,0,0,1,.9,4.05q-.3,2.25-.525,3.225T385.2-30q-.15.9-.45,3.3a6.442,6.442,0,0,0-.675,2.55Q384-22.8,384-21.6a14.668,14.668,0,0,0,.15,2.625q.15.675,1.2.675a9.833,9.833,0,0,0,3.525-1.425A29.963,29.963,0,0,0,392.1-22.35q2.25-2.1,3.975-.675A6.116,6.116,0,0,1,398.25-19.8q.3.6-.6,2.7a31.069,31.069,0,0,1-2.1,4.05q-1.2,1.95-1.95,1.95-.45,0-1.8,1.2a15.814,15.814,0,0,1-2.1,1.65q-1.05,1.05-2.025,1.95a3.131,3.131,0,0,1-2.175.9,3.554,3.554,0,0,0-1.425.375,4.484,4.484,0,0,1-1.875.375,8.74,8.74,0,0,1-4.575-.45,5.579,5.579,0,0,1-3.975-4.2q-.6-1.65-1.725-4.2a11.142,11.142,0,0,1-.525-6.3,33.16,33.16,0,0,0,.75-4.95,9.1,9.1,0,0,1,.6-3.15v-2.175q0-1.725-.45-1.725-.6,0-2.25,1.5t-3.9,3.975Q363.9-23.85,361.575-21a58.229,58.229,0,0,0-4.125,5.7,17.336,17.336,0,0,0-2.4,4.05,8.565,8.565,0,0,1-1.5,2.7q-1.05,1.2-3.525.3a6.9,6.9,0,0,1-3.675-2.85,2.117,2.117,0,0,0-1.05-1.125,1.877,1.877,0,0,1-.975-.9,4.9,4.9,0,0,1,0-2.775,58.81,58.81,0,0,1,1.875-6.75q1.65-5.1,2.925-9.225L350.4-36q0-.6-2.25,1.125T342.9-30.6q-1.35,1.65-3.525,4.2t-4.95,6q-2.775,3.45-6.225,8.1-4.35,6.15-6.525,7.5A2.614,2.614,0,0,1,317.85-5.55Zm102.3,6.9A6.654,6.654,0,0,1,417,.975,30.5,30.5,0,0,1,414-.6a21.49,21.49,0,0,1-5.475-6.3q-2.175-3.75-2.025-6.3a5.634,5.634,0,0,0,.075-2.4l-.225-1.05q-.9-.75-.6-.975a1.432,1.432,0,0,0,.45-.825q1.2-.3.3-1.65-.45-1.2.525-5.475A44.38,44.38,0,0,1,409.65-33.6q.75-1.65,2.175-4.35t3.225-5.475a34.977,34.977,0,0,1,3.3-4.425A80.419,80.419,0,0,1,424.275-54a17.637,17.637,0,0,1,5.925-3.6,14.316,14.316,0,0,1,6.075-1.05,9.184,9.184,0,0,1,5.475,2.1,19.546,19.546,0,0,1,6.45,3.225,10.945,10.945,0,0,1,3.9,6.075,31.385,31.385,0,0,1,.825,10.275q-.375,5.925-5.175,15.225a55.353,55.353,0,0,1-5.625,9.45,45.393,45.393,0,0,1-6.675,6.9,26.8,26.8,0,0,1-7.35,4.2A51.085,51.085,0,0,1,420.15,1.35ZM433.2-21.3a29.119,29.119,0,0,0,3.075-5.25,41.523,41.523,0,0,0,2.175-7.05,17.736,17.736,0,0,0,.525-4.05,31.346,31.346,0,0,0-.15-4.425Q438.6-44.1,437.7-44.25a5.72,5.72,0,0,0-3.975-.075A12.459,12.459,0,0,0,429-40.65a36.23,36.23,0,0,0-3.825,5.025,28.757,28.757,0,0,0-2.55,5.55Q421.5-26.85,420.15-21.75q-1.2,4.95-.075,7.95t4.425,1.65Q427.8-13.5,433.2-21.3ZM467.55-5.1a9.645,9.645,0,0,1-2.85-1.125,12.877,12.877,0,0,1-2.85-1.725,5.752,5.752,0,0,1-1.35-2.625,33.409,33.409,0,0,1-.3-5.625,36.048,36.048,0,0,1,1.95-10.875,159.065,159.065,0,0,1,6.6-16.275L474.9-55.8q.75-1.05,1.35-1.875a13.243,13.243,0,0,1,1.35-1.575h.825a1.871,1.871,0,0,1,.825.15,14.569,14.569,0,0,1,4.275,1.65,6.271,6.271,0,0,1,3.525,4.5,20.918,20.918,0,0,1-.6,4.575,21.063,21.063,0,0,1-3.6,6.825,17.167,17.167,0,0,0-2.325,4.35q-1.125,2.85-2.025,5.4-.15.3-.825,1.425t-1.275,2.25a4.64,4.64,0,0,0-.6,1.425l-.6,1.35,6.45-6.3a67.027,67.027,0,0,1,11.4-9.6q4.65-2.85,7.875-2.4A7.05,7.05,0,0,1,506.1-39.9a9.98,9.98,0,0,1,1.5,3.225,21.521,21.521,0,0,1,.6,3.975,38.478,38.478,0,0,1-.15,5.7v8.55q2.85-.75,4.35-1.275t3-.975q1.2-.3,2.475-.6a21.735,21.735,0,0,1,3.225-.45,13,13,0,0,1-1.65,4.8,40.579,40.579,0,0,1-3.675,5.7,26.61,26.61,0,0,1-4.65,4.8A7.627,7.627,0,0,1,506.55-4.5a10.323,10.323,0,0,1-4.5-1.275A10.27,10.27,0,0,1,497.7-10.8q-.6-1.95-1.2-4.5a23.517,23.517,0,0,1-.6-5.4v-6.6a7.413,7.413,0,0,0-.075-1.275q-.075-.375-.225-.375-.6,0-3.825,3.15t-6.525,6.6A103.223,103.223,0,0,1,473.775-8.55Q469.2-5.1,467.55-5.1Z"
    transform="translate(-6.205 104.336)" />
</svg>