<svg xmlns="http://www.w3.org/2000/svg" viewBox="0 0 420.509 130.452" fill="currentColor">
  <path
    d="M118.8,146.74l-1.4-.49q-1.4-.49-3.01-.91a10.618,10.618,0,0,0-2.45-.42,4.719,4.719,0,0,1-3.22-2.45,5.69,5.69,0,0,1-.42-4.13,4.535,4.535,0,0,0,.84-2.38,20.254,20.254,0,0,0,.28-2.94,11,11,0,0,0,.7-1.61q.14-.49.7-2.73.42-2.38,1.47-6.65t2.38-9.17q1.33-4.9,2.59-9.38t2.31-7.56a14.09,14.09,0,0,1,1.47-3.5V90.88l.21-1.33a7.839,7.839,0,0,1,1.33-3.01,28.777,28.777,0,0,0,.98-3.36,13.923,13.923,0,0,0,.42-2.38,15.944,15.944,0,0,0,1.61-3.43q1.05-2.73,2.03-5.39.84-2.24,1.89-4.76t1.82-4.34l.77-1.82v-.7a32.431,32.431,0,0,0,2.73-5.67q2.17-5.11,5.95-13.23.56-1.12,1.68-3.57a11.77,11.77,0,0,0,1.12-3.01q2.1-2.1,4.13-1.47a8.022,8.022,0,0,1,3.64,2.45,14.017,14.017,0,0,1,2.31,3.36l1.4,2.24-5.18,10.08q-2.24,3.92-3.85,7.14a16.605,16.605,0,0,0-1.61,3.78l-.63,1.68q-.63,1.68-1.47,4.27t-1.68,5.11a70.722,70.722,0,0,1-2.94,7.21,14.181,14.181,0,0,0-1.4,3.43q0-.28,2.87-.42t7.21-.14q4.34,0,8.89-.07t8.19-.14a33.357,33.357,0,0,0,5.04-.35l7.28-.7,3.92-12.46q1.12-3.92,2.94-9.52t3.22-9.52q2.24-6.44,4.76-9.03t4.2-2.59a4.084,4.084,0,0,1,1.61.77q1.19.77,2.45,1.75a4.3,4.3,0,0,1,1.54,1.82,4.417,4.417,0,0,1,1.61,3.5q-.07,1.96-2.31,5.18a42.157,42.157,0,0,0-3.71,8.19q-1.47,4.41-2.59,7.21a7.456,7.456,0,0,1-.42,2.73,4.752,4.752,0,0,1-.98,1.61,10.891,10.891,0,0,0-1.12,2.1q-.84,1.82-1.54,3.64a9.838,9.838,0,0,0-.7,2.24,8.531,8.531,0,0,1-.42,2.38,4.741,4.741,0,0,1-.98,1.96q-.28.84-1.26,4.2t-2.24,7.91q-1.26,4.55-2.66,8.82t-2.52,7.07a6,6,0,0,1-.7,2.45,6.175,6.175,0,0,0-.7,2.59l-1.4,4.2a14.344,14.344,0,0,0-.84,3.22q-.7,3.22-1.47,7.42t-1.26,7.42q-.49,3.22-.49,3.5-3.64.56-5.46-.84a12.923,12.923,0,0,0-3.36-1.96,5.948,5.948,0,0,1-3.15-3.85,8.805,8.805,0,0,1,1.05-5.53,23.63,23.63,0,0,0,1.75-5.53q1.05-4.41,2.17-8.75.84-2.1,1.82-5.32t1.89-6.37q.91-3.15,1.61-5.46a7.027,7.027,0,0,1,.98-2.45v-1.4a7.935,7.935,0,0,0-2.87-.49q-2.59-.21-6.37-.14t-8.26.28q-4.48.21-8.54.77H132.94a17.253,17.253,0,0,0-1.05,2.73q-.77,2.31-1.82,5.74t-2.1,6.93q-1.05,3.5-1.82,6.37t-1.05,4.13q-.56,2.52-1.47,6.3t-1.96,7.77q-1.05,3.99-1.82,6.93T118.8,146.74Zm68.88,16.38a29.5,29.5,0,0,1-9.66.35,21.157,21.157,0,0,1-7.77-2.45q-3.15-1.82-3.85-4.06-.84-3.22.84-4.76a7.006,7.006,0,0,1,3.99-1.82q2.31-.28,3.01.56,1.12.7,3.57,2.1a8.686,8.686,0,0,0,6.09.7,11.938,11.938,0,0,0,5.74-3.08,37.676,37.676,0,0,0,4.48-5.04q1.12-1.68,3.78-6.02t5.53-9.59q2.87-5.25,4.83-9.73.42-1.12.98-2.66a8.076,8.076,0,0,1,1.4-2.52q.84-1.68,1.47-3.15a16.457,16.457,0,0,0,.77-2.03,13.712,13.712,0,0,1,1.26-2.8q1.12-2.1,2.1-4.2.7-2.1,2.1-6.16a42.063,42.063,0,0,1,2.8-6.58q1.68-3.22,2.73-5.25a4.569,4.569,0,0,1,2.31-2.45,3.955,3.955,0,0,1,2.38-.98,5.775,5.775,0,0,1,2.66.84,20.76,20.76,0,0,1,2.73,3.29,5.986,5.986,0,0,1,.84,3.92,17.883,17.883,0,0,1-2.31,6.23,50.087,50.087,0,0,1-2.45,6.09,20.635,20.635,0,0,1-2.03,3.57q-.7,1.68-1.61,3.71t-1.61,3.71q-2.52,5.6-4.34,9.1t-3.22,6.44q-1.4,2.94-2.94,6.86-3.22,5.18-6.23,9.87a89.657,89.657,0,0,1-6.37,8.75q-1.4,1.26-3.99,3.29t-5.32,3.78A15,15,0,0,1,187.68,163.12Zm17.5-31.64a8.343,8.343,0,0,1-4.55-2.8,26.826,26.826,0,0,1-4.06-5.32q-1.61-2.8-1.33-3.92V117.9q-.84,0-1.33-2.45a45.614,45.614,0,0,1-.7-6.23q-.21-3.78-.14-7.84t.35-7.42a22.932,22.932,0,0,0,.56-5.25q0-2.87.14-4.55a5.328,5.328,0,0,1,.91-3.64,10,10,0,0,1,1.61-1.82q5.18-2.24,7.56,2.38t1.68,14.7q-.28,5.6-.28,10.71a34.018,34.018,0,0,0,.98,8.75,8.465,8.465,0,0,0,3.36,5.18q.98.56.7,2.38a13.715,13.715,0,0,1-1.26,3.85,17.931,17.931,0,0,1-2.17,3.5Q206.02,131.62,205.18,131.48Zm68.88,2.38q-2.1.14-3.85.14a5.539,5.539,0,0,1-2.73-.56,16.146,16.146,0,0,1-3.29-3.36,5.264,5.264,0,0,1-.77-2.8q.14-1.96.14-3.99v-3.15q-.56-.56-2.24,1.26a28.959,28.959,0,0,1-3.92,3.5,40.091,40.091,0,0,1-7.7,7.07,15.1,15.1,0,0,1-6.16,2.52,24.975,24.975,0,0,1-5.6.07,6.645,6.645,0,0,1-4.41-2.52,14.419,14.419,0,0,1-2.8-5.46,17.268,17.268,0,0,1-.63-6.3,43.226,43.226,0,0,1,2.52-10.43,46.947,46.947,0,0,1,5.46-9.87,37.944,37.944,0,0,1,4.55-4.9,54.9,54.9,0,0,1,6.23-4.97,28.175,28.175,0,0,1,6.02-3.29,15.411,15.411,0,0,1,6.79-1.68,26.447,26.447,0,0,1,5.39.84,7.6,7.6,0,0,0,3.15.98,1.865,1.865,0,0,0,1.75-1.4,7.746,7.746,0,0,0,1.26-2.8,10.9,10.9,0,0,1,1.4-3.22l3.08-9.1q1.54-3.78,3.64-8.68t4.76-10.92q3.22-5.46,5.53-5.74t4.83,2.52a6.431,6.431,0,0,1,1.89,4.13,11.186,11.186,0,0,1-1.33,5.67,38.871,38.871,0,0,0-2.1,3.85q-1.12,2.31-2.66,5.39-1.54,3.64-3.15,7.28t-3.29,7.98q-.56,2.24-1.47,5.18t-1.47,5.32q-.42,2.24-.91,4.13t-1.05,1.89a9.439,9.439,0,0,0-2.1,4.13,55.43,55.43,0,0,0-1.61,6.65q-.63,3.5-1.05,5.74a42.152,42.152,0,0,0-.42,4.69q-.14,3.01-.14,5.74t0,3.71a13.35,13.35,0,0,1-.35,3.71Q274.9,133.86,274.06,133.86ZM242.42,122.8a8.755,8.755,0,0,0,6.09-2.73q2.87-2.73,6.37-5.81,2.1-2.1,4.34-4.69t4.13-5.11q1.89-2.52,3.01-4.34a6.64,6.64,0,0,0,1.12-2.38q0-.7-1.05-1.26a10.73,10.73,0,0,0-2.45-.91,5.169,5.169,0,0,0-2.52-.07,12.736,12.736,0,0,0-5.39,2.94q-2.03,1.96-5.81,6.16a55.03,55.03,0,0,0-6.02,8.82,25.744,25.744,0,0,0-2.73,6.79Q241.02,122.8,242.42,122.8Zm48.44,9.1a4.577,4.577,0,0,1-2.59-1.4,5.509,5.509,0,0,1-1.89-2.52,6.057,6.057,0,0,1,.07-3.29q.49-2.17,1.47-5.11,1.12-4.62,1.54-6.72t.84-3.64q.42-1.54,1.12-4.48a23.93,23.93,0,0,0,1.33-3.57q.49-1.75,1.12-3.57t1.47-3.64a46.752,46.752,0,0,1,2.45-6.93,45.824,45.824,0,0,1,2.87-5.53,18.878,18.878,0,0,1,1.26-1.54q.98-1.12,1.54-1.12a3.282,3.282,0,0,1,3.08-.77,7.343,7.343,0,0,1,3.36,1.47,7.017,7.017,0,0,1,1.89,4.27q.21,2.45-2.03,6.79a45.716,45.716,0,0,1-3.15,6.79,49.144,49.144,0,0,0-2.87,5.67,39.29,39.29,0,0,1,3.78-4.62q2.24-2.38,3.5-3.78a25.428,25.428,0,0,1,3.43-3.15q1.61-1.19,4.41-3.01,2.38-1.68,4.83-3.08a8.876,8.876,0,0,1,5.95-.84,3.956,3.956,0,0,1,3.01,1.4,10.449,10.449,0,0,1,2.52,3.99,7.539,7.539,0,0,1-.07,5.25,10.266,10.266,0,0,0-5.74.21,17.387,17.387,0,0,0-4.27,2.17q-1.75,1.26-2.73,1.96-1.4.84-3.22,2.17t-3.92,2.94q-2.1,1.61-4.48,3.57a36.468,36.468,0,0,0-5.04,4.9,18.312,18.312,0,0,0-2.66,4.48q-.84,2.1-2.1,5.04t-2.38,5.25a9.374,9.374,0,0,1-1.82,2.87,3.135,3.135,0,0,1-2.87,1.54A5.172,5.172,0,0,1,290.86,131.9Zm52.22,1.12a5.12,5.12,0,0,1-2.87-.7q-1.05-.7-2.59-1.96a24.9,24.9,0,0,1-4.27-6.02,9.174,9.174,0,0,1-1.19-5.6,5.165,5.165,0,0,0,.35-2.17l-.07-1.05q-.7-.7-.42-.91a2.18,2.18,0,0,0,.56-.77q.84,0,.56-1.54-.28-1.12.91-4.83a31.379,31.379,0,0,1,3.29-7.07q.84-1.4,2.52-3.71t3.71-4.62a34.56,34.56,0,0,1,3.71-3.71,52.738,52.738,0,0,1,6.51-4.76,20.575,20.575,0,0,1,6.09-2.52,28.655,28.655,0,0,1,6.37-.7,7.059,7.059,0,0,1,5.39,2.24,9.123,9.123,0,0,1,4.55,3.78,16.34,16.34,0,0,1,1.75,6.16,34.906,34.906,0,0,1-.84,10.29q-1.26,6.09-6.86,14.07a39.5,39.5,0,0,1-6.86,7.84,55.03,55.03,0,0,1-7.42,5.18,14.468,14.468,0,0,1-6.3,2.38Q346.3,132.74,343.08,133.02Zm14.28-17.08a15.751,15.751,0,0,0,4.41-5.88q1.33-3.22,2.87-7.56a6.538,6.538,0,0,0,.77-2.8,21.307,21.307,0,0,0,.07-3.85q-.14-1.89-.98-2.17a2.458,2.458,0,0,0-2.52-.49,15.919,15.919,0,0,0-3.22,1.89,53.065,53.065,0,0,0-7.77,8.05,26.756,26.756,0,0,0-4.97,11.13q-.42,3.5.77,5.25t3.92.98Q353.44,119.72,357.36,115.94Zm29.26,19.6a4.628,4.628,0,0,1-4.76-1.47,12.483,12.483,0,0,1-2.94-6.37,22.988,22.988,0,0,1,.28-9.38,24.92,24.92,0,0,0,1.12-3.29,10.823,10.823,0,0,0,.42-2.59q.28-1.4,1.12-4.13t1.82-5.67q.98-2.94,1.89-5.25t1.19-2.87q.56,0,.98-.98a4.941,4.941,0,0,0,.42-1.96,7.722,7.722,0,0,1,.49-2.52,5.317,5.317,0,0,1,1.05-1.96,4.569,4.569,0,0,1,.35-1.61,4.349,4.349,0,0,0,.35-1.47,2.1,2.1,0,0,1,.35-1.12,2.1,2.1,0,0,0,.35-1.12q.98-1.82,2.59-5.81t3.5-8.89q1.89-4.9,3.57-9.66t2.73-8.05a21.25,21.25,0,0,0,1.05-3.99,3.174,3.174,0,0,1,.84-2.1,2.518,2.518,0,0,1,1.96-.98,3.75,3.75,0,0,1,1.96-.63,18.887,18.887,0,0,1,2.1-.21l.56.56,1.68,1.68a19.862,19.862,0,0,1,2.17,2.24,4.453,4.453,0,0,1,1.05,2.94,12.436,12.436,0,0,1-.49,3.5,39.978,39.978,0,0,1-1.75,4.55q-1.26,2.87-3.92,8.47-1.12,2.8-2.38,5.25a10.942,10.942,0,0,0-1.26,3.01,4.744,4.744,0,0,1-.49,1.68q-.49,1.12-1.05,2.8-.56,1.12-1.54,3.29t-2.03,4.62q-1.05,2.45-1.75,4.2a10.868,10.868,0,0,0-.7,2.03,9.022,9.022,0,0,1-.07,1.12,1.971,1.971,0,0,1-.63,1.12q-.56,0-.63.77l-.07.77q0,1.4-2.24,7.42-2.24,7.7-4.13,14.14a38.887,38.887,0,0,0-1.89,10.36,10.476,10.476,0,0,1-1.05,5.18A5.767,5.767,0,0,1,386.62,135.54Zm25.48-1.68q-3.36,0-5.81-3.57a18.583,18.583,0,0,1-3.01-8.61q.14-1.12.35-3.22t.49-4.34q.56-2.66,1.61-6.79t2.1-8.47q1.05-4.34,1.89-7.49t.98-3.71q.84-1.96,3.78-.98a9.778,9.778,0,0,1,5.04,4.2,5.612,5.612,0,0,1,1.05,2.66,14.055,14.055,0,0,1-.42,4.48q-.63,2.94-2.31,8.68-1.54,5.6-2.31,9.03a28.059,28.059,0,0,0-.63,7.21,70.274,70.274,0,0,1-1.12,8.75Q413.22,134,412.1,133.86Zm12.88-58.1a1.426,1.426,0,0,1-1.05.35,5.114,5.114,0,0,1-1.61-.77,5.573,5.573,0,0,1-2.45-1.33,16.072,16.072,0,0,1-2.52-2.52,8.143,8.143,0,0,1-1.05-1.47,23.655,23.655,0,0,1,.21-4.48,20.145,20.145,0,0,1,1.54-5.81q1.19-2.73,3.29-2.87a11.68,11.68,0,0,1,2.45.56q1.89.56,3.99,1.4a29.154,29.154,0,0,1,2.1,5.46,12.387,12.387,0,0,1,.21,6.51Q429.32,73.94,424.98,75.76Zm45.78,57.68a7.136,7.136,0,0,1-4.06-1.33,9.933,9.933,0,0,1-3.22-3.78,12.553,12.553,0,0,1-1.26-5.81,32.679,32.679,0,0,1,.77-5.95q.77-3.85,2.31-9.73a15.42,15.42,0,0,1,.49-2.52,3.171,3.171,0,0,0,.21-1.12,1.551,1.551,0,0,0-.07-.49.323.323,0,0,0-.35-.21,5.613,5.613,0,0,0-3.01,1.47q-1.89,1.47-4.27,3.43a9.623,9.623,0,0,0-.91.7l-.98.84q-.49.42-1.05.84a39.962,39.962,0,0,0-4.27,3.22q-2.87,2.38-5.88,5.04t-5.25,4.48q-1.12.84-1.89,1.4a2.5,2.5,0,0,1-1.05.56,12.085,12.085,0,0,1-2.17-.77,13.714,13.714,0,0,1-3.64-2.24,4.376,4.376,0,0,1-1.75-3.43,24.109,24.109,0,0,1,1.05-5.04q1.05-3.78,3.01-8.96T438,93.54a12.532,12.532,0,0,0,.84-3.36q.28-2.1.63-4.13a5.477,5.477,0,0,1,1.33-3.01,2.831,2.831,0,0,1,1.05-1.05,2.7,2.7,0,0,1,1.33-.35,5.87,5.87,0,0,1,2.66.63,7.287,7.287,0,0,1,2.38,2.03,8.318,8.318,0,0,1,2.31,5.25,18.5,18.5,0,0,1-.49,5.81,24.407,24.407,0,0,1-1.54,4.55q-.84,1.75-.84,1.47a6.991,6.991,0,0,0,1.61-1.4,17.033,17.033,0,0,1,3.71-2.66,68.357,68.357,0,0,1,5.6-3.99q1.96-1.19,3.01-1.75a11.1,11.1,0,0,0,1.89-1.26,4.928,4.928,0,0,1,1.05-.7l.35-.14a3.92,3.92,0,0,0,1.47-.56,4.308,4.308,0,0,1,2.03-.56,7.763,7.763,0,0,1,2.94.63,8.611,8.611,0,0,1,2.66,1.68,3.008,3.008,0,0,1,1.12,2.17.95.95,0,0,0,.28.7,4.588,4.588,0,0,1,.56.7,20.85,20.85,0,0,1,1.61,2.31,9.222,9.222,0,0,1,.91,4.69,32.682,32.682,0,0,1-.98,6.58q-.98,4.34-2.1,8.54a26.483,26.483,0,0,0-1.05,6.93,15.2,15.2,0,0,0,.49,3.92,7.571,7.571,0,0,1,.42,2.17,4.511,4.511,0,0,1-1.12,2.59A3.958,3.958,0,0,1,470.76,133.44Zm25.48-.7a13.206,13.206,0,0,1-7.56-7.28q-2.1-5.04-1.12-13.44.28-4.34-.28-5.81a7.663,7.663,0,0,0-2.1-2.87,15.636,15.636,0,0,0-1.96-1.89q-1.54-1.33-1.4-2.03a5.093,5.093,0,0,1,.42-2.45q.56-1.47.98-1.61.98-.42,2.03-.98a1.829,1.829,0,0,1,1.61-.28,4.113,4.113,0,0,1,1.75.7q1.19.7,1.19,1.26.56.98,1.75-.84a47.027,47.027,0,0,0,2.59-4.62,20.924,20.924,0,0,1,3.5-4.2,49.448,49.448,0,0,1,4.27-3.57,33.117,33.117,0,0,1,3.71-2.45q.7-.28,2.73-.84a38.269,38.269,0,0,1,4.27-.91,13.181,13.181,0,0,1,3.36-.21,10.42,10.42,0,0,1,5.32,2.1,26.757,26.757,0,0,1,4.34,3.64,6.26,6.26,0,0,1,2.45,3.85,18.733,18.733,0,0,1,.49,5.39,11.915,11.915,0,0,1-1.12,4.76,11.471,11.471,0,0,1-2.94,3.92,56.145,56.145,0,0,1-5.53,4.83,23,23,0,0,1-5.11,3.15,31.045,31.045,0,0,1-4.34.63,26.2,26.2,0,0,1-4.69,0,9.543,9.543,0,0,1-3.01-.63,1.087,1.087,0,0,0-1.61.35q-.63.91-1.05,4.83a9.8,9.8,0,0,0,.07,2.66,6.714,6.714,0,0,0,.49,1.68,8.62,8.62,0,0,0,1.96,2.45q.98.77,3.64.49t5.39-3.29a46.638,46.638,0,0,1,4.97-4.83,3.346,3.346,0,0,1,2.45-1.33,10.575,10.575,0,0,1,4.55.35,3.245,3.245,0,0,1,1.47,3.08q-.07,2.1-2.31,6.16a11.311,11.311,0,0,1-2.31,2.87q-1.89,1.89-4.06,3.78a27.08,27.08,0,0,1-3.57,2.73,16.241,16.241,0,0,1-8.26,2.1A23.3,23.3,0,0,1,496.24,132.74Zm10.36-31.5a36.9,36.9,0,0,0,3.57-1.12,9.245,9.245,0,0,0,2.87-1.82,24.469,24.469,0,0,0,3.22-3.78,9.791,9.791,0,0,0,.63-2.66q.07-1.12-.21-1.4a2.429,2.429,0,0,0-2.45-.77,8.831,8.831,0,0,0-2.87,1.47,14.58,14.58,0,0,0-2.73,1.75,32.937,32.937,0,0,0-3.36,2.94,21.35,21.35,0,0,0-2.52,2.94q-.91,1.33-.35,1.61-.28.56,1.61.7T506.6,101.24Z"
    transform="translate(-108.096 -33.265)" />
</svg>