<svg xmlns="http://www.w3.org/2000/svg" xmlns:xlink="http://www.w3.org/1999/xlink"
  viewBox="0 0 384 384" fill="none" shape-rendering="crispEdges">
  <rect x="0" y="352" width="32" height="32" fill="#555555">
</rect>
  <rect x="32" y="352" width="32" height="32" fill="#555555">
</rect>
  <rect x="64" y="352" width="32" height="32" fill="#555555">
</rect>
  <rect x="96" y="352" width="32" height="32" fill="#555555">
</rect>
  <rect x="128" y="352" width="32" height="32" fill="#555555">
</rect>
  <rect x="160" y="352" width="32" height="32" fill="#656565">
</rect>
  <rect x="192" y="352" width="32" height="32" fill="#656565">
</rect>
  <rect x="224" y="352" width="32" height="32" fill="#555555">
</rect>
  <rect x="256" y="352" width="32" height="32" fill="#555555">
</rect>
  <rect x="288" y="352" width="32" height="32" fill="#555555">
</rect>
  <rect x="64" y="320" width="32" height="32" fill="#5A5A5A">
</rect>
  <rect x="96" y="288" width="32" height="32" fill="#5A5A5A">
</rect>
  <rect x="96" y="224" width="32" height="32" fill="#5A5A5A">
</rect>
  <rect x="128" y="192" width="32" height="32" fill="#5A5A5A">
</rect>
  <rect x="128" y="160" width="32" height="32" fill="#5A5A5A">
</rect>
  <rect x="224" y="192" width="32" height="32" fill="#5A5A5A">
</rect>
  <rect x="224" y="160" width="32" height="32" fill="#5A5A5A">
</rect>
  <rect x="96" y="256" width="32" height="32" fill="#5A5A5A">
</rect>
  <rect x="128" y="288" width="32" height="32" fill="#787878">
</rect>
  <rect x="128" y="224" width="32" height="32" fill="#656565">
</rect>
  <rect x="128" y="256" width="32" height="32" fill="#787878">
</rect>
  <rect x="128" y="288" width="32" height="32" fill="#787878">
</rect>
  <rect x="128" y="224" width="32" height="32" fill="#656565">
</rect>
  <rect x="128" y="256" width="32" height="32" fill="#787878">
</rect>
  <rect x="224" y="288" width="32" height="32" fill="#787878">
</rect>
  <rect x="224" y="224" width="32" height="32" fill="#656565">
</rect>
  <rect x="224" y="256" width="32" height="32" fill="#787878">
</rect>
  <rect x="256" y="288" width="32" height="32" fill="#5A5A5A">
</rect>
  <rect x="256" y="224" width="32" height="32" fill="#5A5A5A">
</rect>
  <rect x="256" y="256" width="32" height="32" fill="#5A5A5A">
</rect>
  <rect x="96" y="320" width="32" height="32" fill="#656565">
</rect>
  <rect x="128" y="320" width="32" height="32" fill="#919191">
</rect>
  <rect x="160" y="320" width="32" height="32" fill="#0FAFFF">
</rect>
  <rect x="192" y="288" width="32" height="32" fill="#0FAFFF">
</rect>
  <rect x="160" y="256" width="32" height="32" fill="#0FAFFF">
</rect>
  <rect x="192" y="224" width="32" height="32" fill="#0FAFFF">
</rect>
  <rect x="192" y="320" width="32" height="32" fill="#1391FD">
</rect>
  <rect x="160" y="288" width="32" height="32" fill="#1391FD">
</rect>
  <rect x="192" y="256" width="32" height="32" fill="#1391FD">
</rect>
  <rect x="160" y="224" width="32" height="32" fill="#1391FD">
</rect>
  <rect x="160" y="192" width="32" height="32" fill="#0084D8">
</rect>
  <rect x="192" y="160" width="32" height="32" fill="#0066FF">
</rect>
  <rect x="192" y="192" width="32" height="32" fill="#0087FF">
</rect>
  <rect x="160" y="160" width="32" height="32" fill="#0057E4">
</rect>
  <rect x="160" y="128" width="32" height="32" fill="#1F4AFF">
</rect>
  <rect x="192" y="96" width="32" height="32" fill="#1F4AFF">
</rect>
  <rect x="192" y="128" width="32" height="32" fill="#1B2CFF">
</rect>
  <rect x="160" y="96" width="32" height="32" fill="#1B2CFF">
</rect>
  <rect x="160" y="64" width="32" height="32" fill="#515151">
</rect>
  <rect x="128" y="64" width="32" height="32" fill="#303030">
</rect>
  <rect x="64" y="64" width="32" height="32" fill="#303030">
</rect>
  <rect x="96" y="64" width="32" height="32" fill="#515151">
</rect>
  <rect x="32" y="64" width="32" height="32" fill="#515151">
</rect>
  <rect x="64" y="96" width="32" height="32" fill="#515151">
</rect>
  <rect x="288" y="96" width="32" height="32" fill="#515151">
</rect>
  <rect x="256" y="64" width="32" height="32" fill="#515151">
</rect>
  <rect x="320" y="64" width="32" height="32" fill="#515151">
</rect>
  <rect x="224" y="64" width="32" height="32" fill="#303030">
</rect>
  <rect x="288" y="64" width="32" height="32" fill="#303030">
</rect>
  <rect x="288" y="32" width="32" height="32" fill="#303030">
</rect>
  <rect x="288" y="0" width="32" height="32" fill="#303030">
</rect>
  <rect x="256" y="32" width="32" height="32" fill="#303030">
</rect>
  <rect x="64" y="32" width="32" height="32" fill="#303030">
</rect>
  <rect x="64" y="0" width="32" height="32" fill="#303030">
</rect>
  <rect x="96" y="32" width="32" height="32" fill="#303030">
</rect>
  <rect x="192" y="32" width="32" height="32" fill="#182BFF">
</rect>
  <rect x="192" y="64" width="32" height="32" fill="#515151">
</rect>
  <rect x="160" y="32" width="32" height="32" fill="#182BFF">
</rect>
  <rect x="192" y="0" width="32" height="32" fill="#1926BE">
</rect>
  <rect x="160" y="0" width="32" height="32" fill="#1926BE">
</rect>
  <rect x="224" y="320" width="32" height="32" fill="#919191">
</rect>
  <rect x="256" y="320" width="32" height="32" fill="#656565">
</rect>
  <rect x="288" y="320" width="32" height="32" fill="#5A5A5A">
</rect>
  <rect x="320" y="352" width="32" height="32" fill="#555555">
</rect>
  <rect x="352" y="352" width="32" height="32" fill="#555555">
</rect>
</svg>