<svg xmlns="http://www.w3.org/2000/svg" viewBox="0 0 397.486 126.531" fill="currentColor">
  <path
    d="M125.73,145.62l-.42-.21a4.6,4.6,0,0,0-1.05-.35,6.835,6.835,0,0,0-1.47-.14,4.719,4.719,0,0,1-3.22-2.45,5.69,5.69,0,0,1-.42-4.13,4.535,4.535,0,0,0,.84-2.38,20.254,20.254,0,0,0,.28-2.94,11,11,0,0,0,.7-1.61q.14-.49.7-2.73.42-2.38,1.47-6.65t2.38-9.17q1.33-4.9,2.59-9.38t2.31-7.56a14.09,14.09,0,0,1,1.47-3.5V90.88l.21-1.33a7.84,7.84,0,0,1,1.33-3.01,28.777,28.777,0,0,0,.98-3.36,13.924,13.924,0,0,0,.42-2.38,15.944,15.944,0,0,0,1.61-3.43q1.05-2.73,2.03-5.39.84-2.24,1.89-4.76t1.82-4.34l.77-1.82v-.7a32.431,32.431,0,0,0,2.73-5.67q2.17-5.11,5.95-13.23.56-1.12,1.4-2.52a4.872,4.872,0,0,0,.84-1.96,2.046,2.046,0,0,1,1.96-1.05,5.428,5.428,0,0,1,2.59.91,5.355,5.355,0,0,1,2.03,2.38l1.4,2.24-5.04,10.08q-2.24,3.92-3.71,7.14a17.535,17.535,0,0,0-1.47,3.78l-.84,2.24q-.84,2.24-1.96,5.32t-1.96,5.6q-1.54,4.34-2.87,7.14a13.9,13.9,0,0,0-1.33,3.36q0-.28,3.08-.42t7.84-.14q4.76,0,9.73-.07t8.82-.14a35.229,35.229,0,0,0,5.25-.35l7.28-.7,4.76-14.42q1.12-3.92,2.94-9.52t3.22-9.52q2.24-6.44,3.5-7.98a3.719,3.719,0,0,1,2.94-1.54,4.9,4.9,0,0,1,1.19.21,5.639,5.639,0,0,1,1.54.7,2.462,2.462,0,0,1,1.05,1.33,4.416,4.416,0,0,1,1.61,3.5q-.07,1.96-2.31,5.18a42.157,42.157,0,0,0-3.71,8.19q-1.47,4.41-2.59,7.21a7.456,7.456,0,0,1-.42,2.73,4.752,4.752,0,0,1-.98,1.61,10.893,10.893,0,0,0-1.12,2.1q-.84,1.82-1.54,3.64a9.839,9.839,0,0,0-.7,2.24,8.53,8.53,0,0,1-.42,2.38,4.741,4.741,0,0,1-.98,1.96q-.28.84-1.26,4.2t-2.24,7.91q-1.26,4.55-2.66,8.82t-2.52,7.07a6,6,0,0,1-.7,2.45,6.175,6.175,0,0,0-.7,2.59l-1.4,4.2a14.342,14.342,0,0,0-.84,3.22q-.7,3.22-1.47,6.58t-1.26,5.81a26.161,26.161,0,0,0-.49,2.87,1.494,1.494,0,0,1-1.68.14q-1.12-.42-2.66-.98-2.66-1.54-3.15-3.29t1.05-4.97a23.631,23.631,0,0,0,1.75-5.53q1.05-4.41,2.17-8.75a55.333,55.333,0,0,0,1.82-5.67q.98-3.57,1.96-7.28t1.68-6.3a11.3,11.3,0,0,1,.98-2.87v-1.4q-.28-.28-3.5-.49t-7.98-.14q-4.76.07-9.87.28t-9.17.77H140.29l-.98,2.94q-.84,2.52-1.96,6.09t-2.31,7.28q-1.19,3.71-1.96,6.72t-1.05,4.27q-.56,2.52-1.47,6.3t-1.96,7.77q-1.05,3.99-1.82,6.93T125.73,145.62Zm68.18,16.24a16.708,16.708,0,0,1-7.35.35,19.163,19.163,0,0,1-7-2.45q-3.01-1.82-3.43-4.06a2.582,2.582,0,0,1,.49-1.82,3.213,3.213,0,0,1,1.54-1.33,1.329,1.329,0,0,1,1.61.49,23.522,23.522,0,0,0,4.06,1.75,12.363,12.363,0,0,0,6.58.35,13.356,13.356,0,0,0,6.37-3.78,48.273,48.273,0,0,0,5.11-5.74q1.12-1.68,3.78-6.02t5.53-9.59q2.87-5.25,4.83-9.73.42-1.12.98-2.66a8.076,8.076,0,0,1,1.4-2.52q.84-1.68,1.47-3.15a16.457,16.457,0,0,0,.77-2.03,13.712,13.712,0,0,1,1.26-2.8q1.12-2.1,2.1-4.2.7-2.1,2.1-6.16a42.063,42.063,0,0,1,2.8-6.58q1.68-3.22,2.73-5.25a4.569,4.569,0,0,1,2.31-2.45,3.925,3.925,0,0,1,1.75-.98,5.94,5.94,0,0,1,2.03.84,7.5,7.5,0,0,1,2.1,3.29,6.967,6.967,0,0,1-.35,3.92,43.143,43.143,0,0,1-2.87,6.23,50.09,50.09,0,0,1-2.45,6.09,20.635,20.635,0,0,1-2.03,3.57q-.7,1.68-1.61,3.71t-1.61,3.71q-2.52,5.6-4.34,9.1t-3.22,6.44q-1.4,2.94-2.94,6.86-3.22,5.18-6.23,9.87a89.654,89.654,0,0,1-6.37,8.75q-1.4,1.26-3.5,2.94a51.738,51.738,0,0,1-4.27,3.08A15.651,15.651,0,0,1,193.91,161.86Zm18.9-33.6a7,7,0,0,1-4.13-2.52,17.939,17.939,0,0,1-3.15-4.76q-1.12-2.52-.84-3.64V115.8q-.84,0-1.47-2.1a27.487,27.487,0,0,1-.91-5.46q-.28-3.36-.35-7.14a70.418,70.418,0,0,1,.21-7.14,22.932,22.932,0,0,0,.56-5.25q0-2.87.14-4.55a5.018,5.018,0,0,1,.42-3.01,5.563,5.563,0,0,1,1.12-1.19q3.92-1.68,5.25,2.03t.63,13.79q-.28,5.6,0,11.2a39.058,39.058,0,0,0,1.61,9.8q1.33,4.2,3.71,5.74a1.712,1.712,0,0,1,.98,1.54,4.309,4.309,0,0,1-.56,2.03,4.68,4.68,0,0,1-1.47,1.68A2.363,2.363,0,0,1,212.81,128.26Zm62.72,4.34a8.891,8.891,0,0,1-1.61-.21,2.788,2.788,0,0,1-1.75-1.19,14.278,14.278,0,0,1-2.66-4.2,11.593,11.593,0,0,1-.14-4.9q.28-2.1.35-3.71t.21-2.73q-.56-.56-2.03.77t-3.99,3.29a62.954,62.954,0,0,1-8.47,8.33,22.021,22.021,0,0,1-6.65,3.78,13.918,13.918,0,0,1-5.6.63,5.452,5.452,0,0,1-3.78-2.03,8.894,8.894,0,0,1-1.75-4.55,28.593,28.593,0,0,1-.07-6.02,41.867,41.867,0,0,1,2.03-8.82,45.037,45.037,0,0,1,4.83-9.38,27.035,27.035,0,0,1,4.13-5.53,36.169,36.169,0,0,1,5.74-4.9,24.523,24.523,0,0,1,6.09-3.15,21.67,21.67,0,0,1,6.58-1.47,16.5,16.5,0,0,1,6.02.63,6.54,6.54,0,0,0,2.73.84q1.05,0,1.61-1.4a14.983,14.983,0,0,0,1.4-3.43,18.657,18.657,0,0,1,1.68-3.99l3.08-9.1q1.54-3.78,3.36-7.98t4.34-10.22q2.38-4.48,3.92-5.25t3.5,1.19a4.785,4.785,0,0,1,1.12,4.13,41.25,41.25,0,0,1-2.52,7.35q-.98,1.54-1.68,2.87t-1.96,4.13q-1.82,4.34-3.36,7.77t-3.22,7.77q-.56,2.24-1.47,5.18t-1.47,5.32q-.42,2.24-.91,4.13t-1.05,1.89a12.467,12.467,0,0,0-2.1,4.41,57.673,57.673,0,0,0-1.61,6.51l-1.05,5.6a40.205,40.205,0,0,0-.42,4.34q-.14,2.66-.14,5.11v3.43a32.181,32.181,0,0,1-.14,3.92A.978.978,0,0,1,275.53,132.6Zm-29.82-8.82a10.431,10.431,0,0,0,6.23-2.52q3.29-2.52,6.65-5.6a41.57,41.57,0,0,0,4.55-5.18q2.45-3.22,4.76-6.44a67.107,67.107,0,0,0,3.71-5.67,10.336,10.336,0,0,0,1.4-3.01q0-.7-1.26-.98a16.643,16.643,0,0,0-2.87-.35,8.384,8.384,0,0,0-2.59.21,17.4,17.4,0,0,0-6.09,2.8,34.921,34.921,0,0,0-6.51,6.3,47.694,47.694,0,0,0-5.95,9.24,31.63,31.63,0,0,0-2.87,7.98Q244.31,123.78,245.71,123.78Zm51.1,7a1.431,1.431,0,0,1-2.03.84,13.19,13.19,0,0,1-2.17-1.12,2.606,2.606,0,0,1-1.68-.56,3,3,0,0,1-.98-1.68,4.7,4.7,0,0,1-.14-2.03,16.438,16.438,0,0,1,.63-2.8q.49-1.61,1.05-3.57,1.12-4.62,1.54-6.72t.84-3.64q.42-1.54,1.12-4.48a46.781,46.781,0,0,0,1.82-5.46,25.191,25.191,0,0,1,2.1-5.32,46.748,46.748,0,0,1,2.45-6.93,45.818,45.818,0,0,1,2.87-5.53,6.9,6.9,0,0,1,1.05-1.12,2.171,2.171,0,0,1,1.33-.7,2.283,2.283,0,0,1,2.03-.91,6.423,6.423,0,0,1,2.31,1.33,4.874,4.874,0,0,1,1.33,4.2q-.35,2.38-3.43,7-1.68,4.34-3.08,7.49a28.529,28.529,0,0,0-1.96,5.95,29.3,29.3,0,0,1,3.43-4.13l3.15-3.15a39.721,39.721,0,0,1,5.11-4.48q2.03-1.4,4.83-3.22,1.68-1.12,3.22-2.03a11.668,11.668,0,0,1,3.43-1.33,10.24,10.24,0,0,1,4.13,0,2.628,2.628,0,0,1,2.31.84,7.2,7.2,0,0,1,1.47,2.66,15.5,15.5,0,0,1,.7,3.92,10.266,10.266,0,0,0-5.74.21,17.388,17.388,0,0,0-4.27,2.17q-1.75,1.26-2.73,1.96-2.1,1.4-5.32,3.71a52.207,52.207,0,0,0-6.44,5.53q-2.52,2.8-4.27,4.76a35.122,35.122,0,0,0-2.8,3.5,13,13,0,0,0-1.61,3.22q-1.4,3.22-2.94,7T296.81,130.78Zm48.16,1.12a5.12,5.12,0,0,1-2.87-.7q-1.05-.7-2.59-1.96a19.026,19.026,0,0,1-3.78-5.39,8.594,8.594,0,0,1-.7-4.97,5.165,5.165,0,0,0,.35-2.17l-.07-1.05q-.7-.7-.42-.91a2.18,2.18,0,0,0,.56-.77q.84,0,.56-1.54-.28-1.12,1.12-4.9a38.968,38.968,0,0,1,3.5-7.14q.84-1.4,2.52-3.71t3.71-4.62a34.557,34.557,0,0,1,3.71-3.71,36.328,36.328,0,0,1,6.16-4.34,23.4,23.4,0,0,1,5.74-2.1,23.1,23.1,0,0,1,4.27-.7q1.19,0,3.29,2.24a11.374,11.374,0,0,1,4.69,3.36,11.7,11.7,0,0,1,1.89,5.74,33.28,33.28,0,0,1-.63,9.59q-1.05,5.39-6.65,13.37a38.226,38.226,0,0,1-6.44,7.49,52.084,52.084,0,0,1-7,4.83,27.653,27.653,0,0,1-5.32,2.87A20.747,20.747,0,0,1,344.97,131.9Zm13.44-14.84a49.4,49.4,0,0,0,5.39-7.14,46.492,46.492,0,0,0,3.85-8.54,13.861,13.861,0,0,0,.7-3.85,26.6,26.6,0,0,0-.07-4.34q-.21-2.03-1.05-2.31a6.1,6.1,0,0,0-4.06-.63,10.783,10.783,0,0,0-5.18,2.73,35.209,35.209,0,0,0-7.56,9.03,118.926,118.926,0,0,0-6.3,12.25q-2.1,5.04-.91,8.05t5.18,2.1Q352.39,123.5,358.41,117.06ZM384.03,134a3.936,3.936,0,0,1-4.27-1.12,9.363,9.363,0,0,1-1.89-5.6,31.986,31.986,0,0,1,.84-8.96,24.925,24.925,0,0,0,1.12-3.29,10.823,10.823,0,0,0,.42-2.59q.28-1.4,1.12-4.13t1.82-5.67q.98-2.94,1.89-5.25t1.19-2.87q.56,0,.98-.98a4.941,4.941,0,0,0,.42-1.96,7.722,7.722,0,0,1,.49-2.52,5.317,5.317,0,0,1,1.05-1.96,4.569,4.569,0,0,1,.35-1.61,4.35,4.35,0,0,0,.35-1.47,2.1,2.1,0,0,1,.35-1.12,2.1,2.1,0,0,0,.35-1.12q.98-1.82,2.59-5.81t3.5-8.89q1.89-4.9,3.57-9.66T403,49.37a21.25,21.25,0,0,0,1.05-3.99,1.98,1.98,0,0,1,2.24-2.24,2.089,2.089,0,0,1,1.05-.56,5.5,5.5,0,0,1,1.19-.14l.56.56,1.68,1.68a3.776,3.776,0,0,1,1.33,2.24,18.089,18.089,0,0,1,.21,2.94,11.223,11.223,0,0,1-.42,3.22,31.89,31.89,0,0,1-1.68,4.06q-1.26,2.66-3.92,8.26-1.12,2.8-2.38,5.25a10.941,10.941,0,0,0-1.26,3.01,4.743,4.743,0,0,1-.49,1.68q-.49,1.12-1.05,2.8-.56,1.12-1.54,3.29t-2.03,4.62q-1.05,2.45-1.75,4.2a10.868,10.868,0,0,0-.7,2.03,9.022,9.022,0,0,1-.07,1.12,1.971,1.971,0,0,1-.63,1.12q-.56,0-.63.77l-.07.77q0,1.4-2.24,7.42-2.24,7.7-4.13,14.14a38.887,38.887,0,0,0-1.89,10.36,42.56,42.56,0,0,1-.14,4.41A2.076,2.076,0,0,1,384.03,134Zm21.56-4.34q-2.1-.28-3.57-3.01a14.49,14.49,0,0,1-1.75-4.97q.14-1.12.35-3.22t.49-4.34q.56-2.66,1.54-6.51t2.03-7.77q1.05-3.92,1.89-6.72a31.7,31.7,0,0,1,1.12-3.36,1.675,1.675,0,0,1,2.24-.56,6,6,0,0,1,2.52,1.68,5.612,5.612,0,0,1,1.05,2.66,14.055,14.055,0,0,1-.42,4.48q-.63,2.94-2.31,8.68-1.54,5.6-2.31,9.03a28.059,28.059,0,0,0-.63,7.21q-.56,4.76-.84,5.81A1.14,1.14,0,0,1,405.59,129.66Zm16.1-55.86a1.426,1.426,0,0,1-1.05.35,5.114,5.114,0,0,1-1.61-.77,5.573,5.573,0,0,1-2.45-1.33,16.073,16.073,0,0,1-2.52-2.52,5.227,5.227,0,0,1-1.05-1.61,14.281,14.281,0,0,1,.21-3.57,10.2,10.2,0,0,1,1.47-3.92,3.934,3.934,0,0,1,3.22-1.89,3.1,3.1,0,0,1,.98.14q.42.14,2.52.98,1.12,2.1,2.24,4.69a11.029,11.029,0,0,1,.98,5.04Q424.49,71.84,421.69,73.8Zm41.58,58.52a4.118,4.118,0,0,1-2.87-1.54,13.762,13.762,0,0,1-2.52-3.85,10.659,10.659,0,0,1-1.05-4.41,53.042,53.042,0,0,1,1.05-7.84q1.05-5.74,2.59-11.62,1.12-3.64.7-4.2t-3.78,1.54a30.158,30.158,0,0,0-3.5,2.03,14.346,14.346,0,0,0-2.66,2.31q-.7.56-2.1,1.82a36.353,36.353,0,0,1-2.94,2.38q-1.82,1.4-4.62,3.92t-5.53,5.04q-2.73,2.52-4.13,3.92a2.779,2.779,0,0,1-.84.98,2.471,2.471,0,0,1-1.26.49,3.712,3.712,0,0,1-1.54-.21,6.245,6.245,0,0,1-2.87-1.82,4.54,4.54,0,0,1-1.33-3.22,18.537,18.537,0,0,1,1.12-4.83q1.12-3.43,3.01-8.33t4.41-10.36a6.83,6.83,0,0,0,.7-1.75q.28-1.05.49-2.31a14.5,14.5,0,0,0,.21-2.38,5.585,5.585,0,0,1,.21-1.47,10.217,10.217,0,0,1,.56-1.54,3.793,3.793,0,0,1,.63-1.05,1.4,1.4,0,0,1,1.96-.63,4.686,4.686,0,0,1,2.38,2.03,6.655,6.655,0,0,1,2.17,4.9,21.091,21.091,0,0,1-1.47,7.28,13.847,13.847,0,0,0-.91,1.89q-.35.91-.63,1.54t-.42.98l-.14.35a7.178,7.178,0,0,0,2.52-1.26q1.96-1.26,4.62-2.8,2.1-1.54,3.71-2.87t2.73-2.1a4.205,4.205,0,0,1,1.4-.77,3.3,3.3,0,0,0,1.4-.42,5.33,5.33,0,0,0,1.4-.98,2.11,2.11,0,0,1,.91-.63l.35-.07.56-.07a1.971,1.971,0,0,0,1.12-.63,3.586,3.586,0,0,1,2.94-.49,8.327,8.327,0,0,1,3.36,1.47,3.145,3.145,0,0,1,1.54,2.52,1.231,1.231,0,0,0,.35.91l.35.35q1.12,0,1.47,3.5a15.514,15.514,0,0,1-.77,6.72,20.394,20.394,0,0,1-.77,5.04q-.77,2.94-1.33,5.6a42.21,42.21,0,0,0-1.54,6.16,14.864,14.864,0,0,0-.14,4.48,7.769,7.769,0,0,0,.98,2.94,2.286,2.286,0,0,1-2.24,3.36Zm24.5-1.68q-5.46-2.24-7.07-6.23t-.63-12.39q.28-4.34.28-5.74a3.906,3.906,0,0,0-1.54-2.8,13.285,13.285,0,0,0-1.47-1.54q-1.05-.98-.91-1.68a5.863,5.863,0,0,1,.14-2.17q.28-1.19.84-1.19a2.937,2.937,0,0,0,1.19-.28,1.333,1.333,0,0,1,1.19,0,6.489,6.489,0,0,1,1.26.14q.7.14.7.7.56.98,1.82.21a8.82,8.82,0,0,0,2.66-3.57,24.165,24.165,0,0,1,3.71-4.48q2.31-2.24,4.62-4.13a26.681,26.681,0,0,1,3.85-2.73q.7-.28,2.1-.7a25.964,25.964,0,0,1,3.01-.7,9.442,9.442,0,0,1,2.73-.14,7.891,7.891,0,0,1,4.27,1.4,21.536,21.536,0,0,1,3.29,2.94,5.485,5.485,0,0,1,2.31,3.36,13.729,13.729,0,0,1-1.05,8.82,8.965,8.965,0,0,1-2.38,3.36,36.725,36.725,0,0,1-4.48,3.78,22.152,22.152,0,0,1-4.62,2.66,37.909,37.909,0,0,1-4.69.7,42.512,42.512,0,0,1-5.32.21,9.056,9.056,0,0,1-3.29-.49q-.98-.56-1.54,1.54a34.268,34.268,0,0,0-.84,6.02,17.364,17.364,0,0,0,0,4.48,8.681,8.681,0,0,0,.56,1.96q.98.98,2.73,2.45t4.97.49a10.991,10.991,0,0,0,5.25-3.64,41.479,41.479,0,0,1,4.83-4.76,2.475,2.475,0,0,1,1.89-1.19,6.818,6.818,0,0,1,2.87.21,2.292,2.292,0,0,1,1.33,2.31,16.659,16.659,0,0,1-1.47,3.99,8.818,8.818,0,0,1-1.89,2.45q-1.47,1.47-3.22,2.94a25.2,25.2,0,0,1-3.15,2.31,17.524,17.524,0,0,1-7.84,2.31A18.731,18.731,0,0,1,487.77,130.64Zm8.26-28.42q3.08-.7,4.9-.98a7.445,7.445,0,0,0,3.5-1.61,23.435,23.435,0,0,0,4.2-5.11,6.374,6.374,0,0,0,.35-3.08,3.724,3.724,0,0,0-.77-2.1,2.778,2.778,0,0,0-3.01-.91,10.273,10.273,0,0,0-3.29,1.61,13.34,13.34,0,0,0-2.87,2.03,38.742,38.742,0,0,0-3.71,3.64,33.675,33.675,0,0,0-2.94,3.71q-1.12,1.68-.56,1.96-.28.56,1.61.7T496.03,102.22Z"
    transform="translate(-118.946 -35.926)" />
</svg>