<svg xmlns="http://www.w3.org/2000/svg" xmlns:xlink="http://www.w3.org/1999/xlink"
  viewBox="0 0 384 352" fill="currentColor" shape-rendering="optimizeSpeed">
  <rect x="0" y="224" width="32" height="32"></rect>
  <rect x="32" y="256" width="32" height="32"></rect>
  <rect x="64" y="288" width="32" height="32"></rect>
  <rect x="96" y="288" width="32" height="32"></rect>
  <rect x="128" y="320" width="32" height="32"></rect>
  <rect x="160" y="320" width="32" height="32"></rect>
  <rect x="192" y="320" width="32" height="32"></rect>
  <rect x="224" y="320" width="32" height="32"></rect>
  <rect x="256" y="288" width="32" height="32"></rect>
  <rect x="288" y="288" width="32" height="32"></rect>
  <rect x="320" y="256" width="32" height="32"></rect>
  <rect x="0" y="192" width="32" height="32"></rect>
  <rect x="0" y="160" width="32" height="32"></rect>
  <rect x="32" y="128" width="32" height="32"></rect>
  <rect x="64" y="96" width="32" height="32"></rect>
  <rect x="96" y="64" width="32" height="32"></rect>
  <rect x="128" y="32" width="32" height="32"></rect>
  <rect x="160" y="0" width="32" height="32"></rect>
  <rect x="192" y="0" width="32" height="32"></rect>
  <rect x="224" y="32" width="32" height="32"></rect>
  <rect x="256" y="64" width="32" height="32"></rect>
  <rect x="288" y="96" width="32" height="32"></rect>
  <rect x="320" y="128" width="32" height="32"></rect>
  <rect x="352" y="160" width="32" height="32"></rect>
  <rect x="352" y="192" width="32" height="32"></rect>
  <rect x="352" y="224" width="32" height="32"></rect>
  <rect x="128" y="288" width="32" height="32"></rect>
  <rect x="224" y="288" width="32" height="32"></rect>
  <rect x="288" y="256" width="32" height="32"></rect>
  <rect x="32" y="224" width="32" height="32"></rect>
  <rect x="64" y="256" width="32" height="32"></rect>
  <rect x="96" y="256" width="32" height="32"></rect>
  <rect x="128" y="256" width="32" height="32"></rect>
  <rect x="160" y="256" width="32" height="32"></rect>
  <rect x="192" y="256" width="32" height="32"></rect>
  <rect x="192" y="288" width="32" height="32"></rect>
  <rect x="160" y="288" width="32" height="32"></rect>
  <rect x="224" y="256" width="32" height="32"></rect>
  <rect x="256" y="256" width="32" height="32"></rect>
  <rect x="32" y="160" width="32" height="32"></rect>
  <rect x="64" y="192" width="32" height="32"></rect>
  <rect x="64" y="160" width="32" height="32"></rect>
  <rect x="96" y="224" width="32" height="32"></rect>
  <rect x="128" y="192" width="32" height="32"></rect>
  <rect x="160" y="64" width="32" height="32"></rect>
  <rect x="128" y="96" width="32" height="32"></rect>
  <rect x="160" y="128" width="32" height="32"></rect>
  <rect x="96" y="192" width="32" height="32"></rect>
  <rect x="64" y="224" width="32" height="32"></rect>
  <rect x="32" y="192" width="32" height="32"></rect>
  <rect x="160" y="192" width="32" height="32"></rect>
  <rect x="128" y="224" width="32" height="32"></rect>
  <rect x="160" y="32" width="32" height="32"></rect>
  <rect x="192" y="32" width="32" height="32"></rect>
  <rect x="192" y="64" width="32" height="32"></rect>
  <rect x="160" y="96" width="32" height="32"></rect>
  <rect x="192" y="96" width="32" height="32"></rect>
  <rect x="224" y="64" width="32" height="32"></rect>
  <rect x="224" y="128" width="32" height="32"></rect>
  <rect x="224" y="96" width="32" height="32"></rect>
  <rect x="128" y="64" width="32" height="32"></rect>
  <rect x="96" y="96" width="32" height="32"></rect>
  <rect x="64" y="128" width="32" height="32"></rect>
  <rect x="192" y="128" width="32" height="32"></rect>
  <rect x="192" y="192" width="32" height="32"></rect>
  <rect x="160" y="224" width="32" height="32"></rect>
  <rect x="160" y="160" width="32" height="32"></rect>
  <rect x="192" y="160" width="32" height="32"></rect>
  <rect x="224" y="160" width="32" height="32"></rect>
  <rect x="256" y="128" width="32" height="32"></rect>
  <rect x="256" y="160" width="32" height="32"></rect>
  <rect x="288" y="128" width="32" height="32"></rect>
  <rect x="256" y="96" width="32" height="32"></rect>
  <rect x="288" y="160" width="32" height="32"></rect>
  <rect x="320" y="160" width="32" height="32"></rect>
  <rect x="320" y="192" width="32" height="32"></rect>
  <rect x="320" y="224" width="32" height="32"></rect>
  <rect x="288" y="192" width="32" height="32"></rect>
  <rect x="288" y="224" width="32" height="32"></rect>
  <rect x="192" y="224" width="32" height="32"></rect>
  <rect x="144" y="128" width="16" height="64"></rect>
  <rect x="96" y="128" width="16" height="64"></rect>
  <rect x="112" y="128" width="32" height="16"></rect>
  <rect x="112" y="176" width="32" height="16"></rect>
  <rect x="272" y="192" width="16" height="64"></rect>
  <rect x="224" y="192" width="16" height="64"></rect>
  <rect x="240" y="192" width="32" height="16"></rect>
  <rect x="240" y="240" width="32" height="16"></rect>
</svg>